<svg width="39" height="40" viewBox="0 0 39 40" fill="none" xmlns="http://www.w3.org/2000/svg">
<rect x="0.5" y="0.5" width="38" height="39" rx="3.5" stroke="#CCCCCC"/>
<path d="M23.0661 24.064V26H16.6341V24.064H18.8421V16.672C18.7568 16.8 18.6128 16.944 18.4101 17.104C18.2181 17.2533 17.9941 17.4027 17.7381 17.552C17.4928 17.6907 17.2368 17.808 16.9701 17.904C16.7141 18 16.4795 18.048 16.2661 18.048V16.064C16.5541 16.064 16.8475 15.9893 17.1461 15.84C17.4448 15.6907 17.7221 15.52 17.9781 15.328C18.2341 15.136 18.4368 14.96 18.5861 14.8C18.7461 14.6293 18.8315 14.5387 18.8421 14.528H21.0341V24.064H23.0661Z" fill="#171515"/>
</svg>
