<svg width="100" height="40" viewBox="0 0 100 40" fill="none" xmlns="http://www.w3.org/2000/svg">
<rect width="40" height="40" rx="4" fill="#6EFF75"/>
<path d="M22.9998 28.17C22.9352 28.17 22.8746 28.1477 22.8233 28.0965L16.3033 21.5765C15.4386 20.7117 15.4386 19.2883 16.3033 18.4236L22.8233 11.9036C22.9181 11.8088 23.0815 11.8088 23.1762 11.9036C23.271 11.9983 23.271 12.1617 23.1762 12.2565L16.6562 18.7765C15.981 19.4517 15.981 20.5483 16.6562 21.2236L23.1762 27.7436C23.2691 27.8364 23.2709 27.9953 23.1817 28.0908C23.116 28.1492 23.0479 28.17 22.9998 28.17Z" fill="#FAFAFA" stroke="#FAFAFA"/>
<rect x="60" width="40" height="40" rx="4" fill="#6EFF75"/>
<path d="M83.61 21.573L83.61 21.573L83.6065 21.5765L77.0939 28.0891C77.0276 28.1488 76.9587 28.17 76.9101 28.17C76.8455 28.17 76.7849 28.1477 76.7337 28.0965C76.6389 28.0017 76.6389 27.8383 76.7337 27.7436L83.2537 21.2236C83.9289 20.5483 83.9289 19.4517 83.2537 18.7765L76.7337 12.2565C76.6389 12.1617 76.6389 11.9983 76.7337 11.9036C76.8284 11.8088 76.9918 11.8088 77.0865 11.9036L83.6065 18.4236C84.0236 18.8406 84.2601 19.4037 84.2601 20C84.2601 20.6005 84.0308 21.1604 83.61 21.573Z" fill="#FAFAFA" stroke="#FAFAFA"/>
</svg>
