<svg width="185" height="40" viewBox="0 0 185 40" fill="none" xmlns="http://www.w3.org/2000/svg">
<rect width="40" height="40" rx="4" fill="white" fill-opacity="0.3"/>
<path d="M22.9998 28.17C22.9352 28.17 22.8746 28.1477 22.8233 28.0965L16.3033 21.5765C15.4386 20.7117 15.4386 19.2883 16.3033 18.4236L22.8233 11.9036C22.9181 11.8088 23.0815 11.8088 23.1762 11.9036C23.271 11.9983 23.271 12.1617 23.1762 12.2565L16.6562 18.7765C15.981 19.4517 15.981 20.5483 16.6562 21.2236L23.1762 27.7436C23.2691 27.8364 23.2709 27.9953 23.1817 28.0908C23.116 28.1492 23.0479 28.17 22.9998 28.17Z" fill="#171515" stroke="#171515"/>
<rect x="85" y="40" width="40" height="40" rx="4" transform="rotate(-180 85 40)" fill="white" fill-opacity="0.3"/>
<path d="M62.0002 11.83C62.0648 11.83 62.1254 11.8523 62.1767 11.9035L68.6967 18.4235C69.5614 19.2883 69.5614 20.7117 68.6967 21.5764L62.1767 28.0964C62.0819 28.1912 61.9185 28.1912 61.8238 28.0964C61.729 28.0017 61.729 27.8383 61.8238 27.7435L68.3438 21.2235C69.019 20.5483 69.019 19.4517 68.3438 18.7764L61.8238 12.2564C61.7309 12.1636 61.7291 12.0047 61.8183 11.9092C61.884 11.8508 61.9521 11.83 62.0002 11.83Z" fill="#171515" stroke="#171515"/>
<circle opacity="0.7" cx="120" cy="20" r="5" fill="#FAFAFA"/>
<rect x="135" y="15" width="30" height="10" rx="5" fill="#00B709"/>
<circle opacity="0.7" cx="180" cy="20" r="5" fill="#FAFAFA"/>
</svg>
