<svg width="39" height="40" viewBox="0 0 39 40" fill="none" xmlns="http://www.w3.org/2000/svg">
<rect x="0.5" y="0.5" width="38" height="39" rx="3.5" stroke="#CCCCCC"/>
<path d="M15.2888 26C15.2888 25.3493 15.3315 24.7787 15.4168 24.288C15.5021 23.7867 15.6355 23.344 15.8168 22.96C16.0088 22.5653 16.2541 22.2187 16.5528 21.92C16.8515 21.6213 17.2195 21.3387 17.6568 21.072C18.0301 20.8587 18.4141 20.6507 18.8088 20.448C19.2141 20.2453 19.5875 20.032 19.9288 19.808C20.2808 19.584 20.5635 19.328 20.7768 19.04C21.0008 18.752 21.1128 18.4 21.1128 17.984C21.1128 17.664 21.0435 17.392 20.9048 17.168C20.7768 16.9333 20.5848 16.752 20.3288 16.624C20.0835 16.496 19.7848 16.432 19.4328 16.432C19.0275 16.432 18.6488 16.5067 18.2968 16.656C17.9555 16.7947 17.6461 16.9707 17.3688 17.184C17.1021 17.3867 16.8728 17.5893 16.6808 17.792L15.3368 16.384C15.4861 16.2133 15.6888 16.0213 15.9448 15.808C16.2115 15.5947 16.5261 15.3867 16.8888 15.184C17.2621 14.9813 17.6835 14.816 18.1528 14.688C18.6221 14.56 19.1395 14.496 19.7048 14.496C20.5368 14.496 21.2355 14.6453 21.8008 14.944C22.3661 15.232 22.7928 15.632 23.0808 16.144C23.3795 16.6453 23.5288 17.2267 23.5288 17.888C23.5288 18.368 23.4488 18.7947 23.2888 19.168C23.1395 19.5307 22.9315 19.8507 22.6648 20.128C22.3981 20.4053 22.0995 20.656 21.7688 20.88C21.4381 21.0933 21.0968 21.3013 20.7448 21.504C20.1901 21.8027 19.7421 22.064 19.4008 22.288C19.0595 22.512 18.7875 22.72 18.5848 22.912C18.3928 23.104 18.2435 23.296 18.1368 23.488C18.0408 23.6693 17.9555 23.8613 17.8808 24.064H23.5448V26H15.2888Z" fill="#171515"/>
</svg>
