<svg width="40" height="40" viewBox="0 0 40 40" fill="none" xmlns="http://www.w3.org/2000/svg">
<rect x="0.5" y="0.5" width="39" height="39" rx="3.5" stroke="#ECECEC"/>
<path d="M19.3094 29.0497L19.3094 29.0496L19.3022 29.0471C17.4722 28.4196 15.0707 26.9766 13.1317 24.853C11.1973 22.7343 9.75 19.9693 9.75 16.6901C9.75 13.4642 12.3582 10.8501 15.56 10.8501C17.1175 10.8501 18.5695 11.4575 19.6449 12.5421L20 12.9002L20.3551 12.5421C21.4305 11.4575 22.8825 10.8501 24.44 10.8501C27.6413 10.8501 30.25 13.4737 30.25 16.6901C30.25 19.9744 28.8026 22.7393 26.8684 24.8566C24.9295 26.9789 22.528 28.4195 20.6978 29.0471L20.6978 29.0471L20.6906 29.0497C20.511 29.1143 20.2722 29.1501 20 29.1501C19.7278 29.1501 19.489 29.1143 19.3094 29.0497ZM19.4682 28.5832L19.4719 28.5844C19.6379 28.6398 19.8437 28.6551 20.005 28.6551C20.1663 28.6551 20.3721 28.6398 20.5381 28.5844L20.5381 28.5845L20.5424 28.583C21.7588 28.1652 24.0443 26.982 26.0332 25.0253C28.0283 23.0624 29.76 20.2841 29.76 16.6901C29.76 13.7467 27.3788 11.3501 24.45 11.3501C22.7711 11.3501 21.2121 12.1356 20.208 13.4927L20.2075 13.4935C20.1781 13.5333 20.111 13.5751 20.01 13.5751C19.909 13.5751 19.8419 13.5333 19.8125 13.4935L19.8125 13.4935L19.81 13.4901C18.7866 12.1256 17.2391 11.3501 15.56 11.3501C12.6312 11.3501 10.25 13.7467 10.25 16.6901C10.25 20.279 11.9791 23.0572 13.9729 25.0213C15.9604 26.9792 18.246 28.1652 19.4682 28.5832Z" fill="#171515" stroke="#171515"/>
</svg>
