<svg width="39" height="40" viewBox="0 0 39 40" fill="none" xmlns="http://www.w3.org/2000/svg">
<rect x="0.5" y="0.5" width="38" height="39" rx="3.5" stroke="#CCCCCC"/>
<path d="M19.4906 26.16C18.6906 26.1493 17.9813 25.968 17.3626 25.616C16.744 25.264 16.2266 24.8 15.8106 24.224C15.3946 23.648 15.08 23.0293 14.8666 22.368C14.664 21.696 14.5626 21.04 14.5626 20.4C14.5626 19.7173 14.6746 19.0347 14.8986 18.352C15.1226 17.6693 15.448 17.0507 15.8746 16.496C16.312 15.9307 16.8346 15.4827 17.4426 15.152C18.0506 14.8107 18.7333 14.64 19.4906 14.64C20.312 14.64 21.0266 14.8213 21.6346 15.184C22.2533 15.5467 22.7706 16.016 23.1866 16.592C23.6026 17.168 23.912 17.792 24.1146 18.464C24.328 19.136 24.4346 19.7813 24.4346 20.4C24.4346 21.0933 24.3226 21.7813 24.0986 22.464C23.8746 23.136 23.544 23.7493 23.1066 24.304C22.68 24.8587 22.1626 25.3067 21.5546 25.648C20.9466 25.9787 20.2586 26.1493 19.4906 26.16ZM16.7866 20.4C16.7973 20.848 16.856 21.296 16.9626 21.744C17.08 22.1813 17.2453 22.5867 17.4586 22.96C17.6826 23.3333 17.9653 23.6373 18.3066 23.872C18.648 24.096 19.0426 24.208 19.4906 24.208C19.9706 24.208 20.3813 24.0853 20.7226 23.84C21.064 23.5947 21.3413 23.28 21.5546 22.896C21.7786 22.512 21.944 22.1013 22.0506 21.664C22.1573 21.2267 22.2106 20.8053 22.2106 20.4C22.2106 19.952 22.152 19.5093 22.0346 19.072C21.928 18.624 21.7573 18.2133 21.5226 17.84C21.2986 17.4667 21.016 17.168 20.6746 16.944C20.344 16.7093 19.9493 16.592 19.4906 16.592C19.0213 16.592 18.616 16.7147 18.2746 16.96C17.9333 17.2053 17.6506 17.52 17.4266 17.904C17.2133 18.288 17.0533 18.6987 16.9466 19.136C16.84 19.5733 16.7866 19.9947 16.7866 20.4Z" fill="#171515"/>
</svg>
