<svg width="39" height="40" viewBox="0 0 39 40" fill="none" xmlns="http://www.w3.org/2000/svg">
<rect width="39" height="40" rx="4" fill="#00B709"/>
<path d="M25.5 20.25H13.5C13.3661 20.25 13.25 20.1339 13.25 20C13.25 19.8661 13.3661 19.75 13.5 19.75H25.5C25.6339 19.75 25.75 19.8661 25.75 20C25.75 20.1339 25.6339 20.25 25.5 20.25Z" fill="#FAFAFA" stroke="#FAFAFA"/>
<path d="M19.5 26.75C19.09 26.75 18.75 26.41 18.75 26V14C18.75 13.59 19.09 13.25 19.5 13.25C19.91 13.25 20.25 13.59 20.25 14V26C20.25 26.41 19.91 26.75 19.5 26.75Z" fill="#FAFAFA"/>
</svg>
